<svg width="15" height="20" viewBox="0 0 26 20" fill="none" xmlns="http://www.w3.org/2000/svg">
  <path d="M2 11.25C1.30964 11.25 0.75 10.6904 0.75 10C0.75 9.30964 1.30964 8.75 2 8.75L2 11.25ZM24.8839 9.11612C25.372 9.60427 25.372 10.3957 24.8839 10.8839L16.9289 18.8388C16.4408 19.327 15.6493 19.327 15.1612 18.8388C14.673 18.3507 14.673 17.5592 15.1612 17.0711L22.2322 10L15.1612 2.92893C14.673 2.44078 14.673 1.64932 15.1612 1.16117C15.6493 0.67301 16.4408 0.67301 16.9289 1.16117L24.8839 9.11612ZM2 8.75L24 8.75V11.25L2 11.25L2 8.75Z" fill="#D23F57"/>
</svg>
